<mxfile host="app.diagrams.net" agent="Mozilla/5.0 (Windows NT 10.0; Win64; x64) AppleWebKit/537.36 (KHTML, like Gecko) Chrome/109.0.0.0 Safari/537.36" version="24.9.1">
  <diagram name="PÃ¡gina-1" id="oLXDnU3du9upQQtqPTBa">
    <mxGraphModel dx="2021" dy="1913" grid="1" gridSize="10" guides="1" tooltips="1" connect="1" arrows="1" fold="1" page="1" pageScale="1" pageWidth="827" pageHeight="1169" math="0" shadow="0">
      <root>
        <mxCell id="0" />
        <mxCell id="1" parent="0" />
        <mxCell id="-e2GK_I1I7GDaxDfhgdo-1" value="ItemMenu" style="swimlane;fontStyle=1;align=center;verticalAlign=top;childLayout=stackLayout;horizontal=1;startSize=26;horizontalStack=0;resizeParent=1;resizeParentMax=0;resizeLast=0;collapsible=1;marginBottom=0;whiteSpace=wrap;html=1;fillColor=#94A8B8;" vertex="1" parent="1">
          <mxGeometry x="-580" y="-590" width="250" height="300" as="geometry" />
        </mxCell>
        <mxCell id="-e2GK_I1I7GDaxDfhgdo-2" value="- nome: String&lt;div&gt;- descricao: String&lt;/div&gt;&lt;div&gt;- preco: double&lt;/div&gt;&lt;div&gt;- entregueStatus: boolean&amp;nbsp;&lt;br&gt;&lt;/div&gt;" style="text;strokeColor=none;fillColor=none;align=left;verticalAlign=middle;spacingLeft=4;spacingRight=4;overflow=hidden;rotatable=0;points=[[0,0.5],[1,0.5]];portConstraint=eastwest;whiteSpace=wrap;html=1;" vertex="1" parent="-e2GK_I1I7GDaxDfhgdo-1">
          <mxGeometry y="26" width="250" height="74" as="geometry" />
        </mxCell>
        <mxCell id="-e2GK_I1I7GDaxDfhgdo-3" value="" style="line;strokeWidth=1;fillColor=none;align=left;verticalAlign=middle;spacingTop=-1;spacingLeft=3;spacingRight=3;rotatable=0;labelPosition=right;points=[];portConstraint=eastwest;strokeColor=inherit;" vertex="1" parent="-e2GK_I1I7GDaxDfhgdo-1">
          <mxGeometry y="100" width="250" height="8" as="geometry" />
        </mxCell>
        <mxCell id="-e2GK_I1I7GDaxDfhgdo-4" value="+ ItemMenu(nome: String, descricao: String,&amp;nbsp;preco: double)&amp;nbsp;&lt;br&gt;+ getNome(): String&amp;nbsp;&lt;br&gt;+ setNome(nome: String): void&amp;nbsp;&lt;br&gt;+ getDescricao(): String&amp;nbsp;&lt;br&gt;+ setDescricao(descricao: String): void&amp;nbsp;&lt;br&gt;+ getPreco(): double&amp;nbsp;&lt;br&gt;+ setPreco(preco: double): void&amp;nbsp;&lt;br&gt;+ isEntregueStatus(): boolean&amp;nbsp;&lt;br&gt;+ setEntregueStatus(entregueStatus: boolean):&amp;nbsp;void&amp;nbsp;&lt;br&gt;+ toString(): String" style="text;strokeColor=none;fillColor=none;align=left;verticalAlign=middle;spacingLeft=4;spacingRight=4;overflow=hidden;rotatable=0;points=[[0,0.5],[1,0.5]];portConstraint=eastwest;whiteSpace=wrap;html=1;" vertex="1" parent="-e2GK_I1I7GDaxDfhgdo-1">
          <mxGeometry y="108" width="250" height="192" as="geometry" />
        </mxCell>
      </root>
    </mxGraphModel>
  </diagram>
</mxfile>
